<svg xmlns="http://www.w3.org/2000/svg" width="1200" height="630" viewBox="0 0 1200 630">
  <rect width="1200" height="630" fill="#f7f1e7" />
  <path d="M64 133h1072M64 550h1072" stroke="#dfd5c6" />
  <rect x="64" y="49" width="56" height="56" rx="14" fill="#b8422c" />
  <g
    transform="translate(72 57)"
    fill="none"
    stroke="#fffaf2"
    stroke-width="1.8"
    stroke-linecap="round"
    stroke-linejoin="round"
  >
    <path d="M6 16h28l-3 17H9L6 16ZM6 16l5-8h6m17 8-5-8h-4" />
    <path d="M17 5h8v18l-2-1.5-2 1.5-2-1.5-2 1.5V5Zm3 5h2m-2 4h2M13 28h14" />
  </g>
  <text
    x="136"
    y="89"
    fill="#25251f"
    font-family="Georgia,serif"
    font-size="38"
    letter-spacing="-1.5"
  >
    MenuBox
  </text>
  <text
    x="1136"
    y="84"
    text-anchor="end"
    fill="#41614b"
    font-family="system-ui,sans-serif"
    font-size="17"
    letter-spacing="2"
  >
    EL PEDIDO DE LA SEMANA
  </text>
  <text
    x="64"
    y="283"
    fill="#25251f"
    font-family="Georgia,serif"
    font-size="96"
    letter-spacing="-5"
  >
    La mesa
  </text>
  <text
    x="64"
    y="385"
    fill="#b8422c"
    font-family="Georgia,serif"
    font-size="96"
    letter-spacing="-5"
  >
    del equipo.
  </text>
  <text x="68" y="447" fill="#6d6a5f" font-family="system-ui,sans-serif" font-size="25">
    Algo rico para cada uno.
  </text>
  <g transform="translate(780 172) rotate(6 152 165)">
    <path
      d="M8 12h302v354l-15-8-15 8-15-8-15 8-15-8-15 8-15-8-15 8-15-8-15 8-15-8-15 8-15-8-15 8-15-8-15 8-15-8-15 8-15-8-17 8Z"
      fill="#e4dccf"
    />
    <path
      d="M0 0h302v350l-15-8-15 8-15-8-15 8-15-8-15 8-15-8-15 8-15-8-15 8-15-8-15 8-15-8-15 8-15-8-15 8-15-8-15 8-15-8-17 8Z"
      fill="#fffaf2"
    />
    <path d="M0 0h302v6H0Z" fill="#41614b" />
    <text x="28" y="56" fill="#25251f" font-family="Georgia,serif" font-size="27">Tu pedido</text>
    <g
      transform="translate(212 26)"
      fill="none"
      stroke="#41614b"
      stroke-width="1.8"
      stroke-linecap="round"
      stroke-linejoin="round"
    >
      <path
        d="M6 16h28l-3 17H9L6 16ZM6 16l5-8h6m17 8-5-8h-4M17 5h8v18l-2-1.5-2 1.5-2-1.5-2 1.5V5ZM13 28h14"
      />
    </g>
    <path d="M28 82h246M28 222h246" stroke="#8c8273" stroke-dasharray="4 5" />
    <g fill="#25251f" font-family="system-ui,sans-serif" font-size="17">
      <text x="28" y="121">01</text>
      <text x="67" y="121">Elegimos.</text>
      <text x="28" y="161">02</text>
      <text x="67" y="161">Pedimos.</text>
      <text x="28" y="201">03</text>
      <text x="67" y="201">Compartimos.</text>
    </g>
    <g transform="translate(84 253) rotate(-10 70 24)">
      <rect width="144" height="43" rx="3" fill="none" stroke="#41614b" stroke-width="2" />
      <text
        x="72"
        y="28"
        text-anchor="middle"
        fill="#41614b"
        font-family="system-ui,sans-serif"
        font-size="16"
        letter-spacing="2"
      >
        ¡APUNTADO!
      </text>
    </g>
  </g>
  <text x="64" y="590" fill="#6d6a5f" font-family="system-ui,sans-serif" font-size="17">
    Una decisión menos. Un momento juntos.
  </text>
  <text
    x="1136"
    y="590"
    text-anchor="end"
    fill="#41614b"
    font-family="system-ui,sans-serif"
    font-size="17"
  >
    menubox.chanuar.com
  </text>
</svg>
