<svg xmlns="http://www.w3.org/2000/svg" viewBox="0 0 600 500"><rect width="600" height="500" fill="#dce7dc"/><circle cx="300" cy="245" r="192" fill="#f7f1e7"/><ellipse cx="300" cy="391" rx="186" ry="21" fill="#c3d4be"/><g stroke="#34432b" stroke-width="5" stroke-linejoin="round"><path d="M135 225C142 90 449 90 465 225Z" fill="#e7ae5b"/><path d="M127 242l35-15 32 14 31-15 37 18 35-19 41 18 36-18 35 17 27-13 39 16-18 31H143Z" fill="#68844b"/><rect x="136" y="276" width="329" height="40" rx="20" fill="#a97d48"/><path d="M160 269c62-60 99-41 151 0m-4 0c48-51 91-46 126 0" fill="#a1b967"/><path d="M143 329h313c-1 77-310 77-313 0Z" fill="#e7ae5b"/></g><g stroke="#fff5d8" stroke-width="6" stroke-linecap="round"><path d="m212 172 8-7m59 14 8-7m58-16 8 5m50 16 8-5m-91-29 8-5"/></g></svg>
